
<svg data-name="Layer 1" viewBox="0 0 2021.7 349.07" xmlns="http://www.w3.org/2000/svg">
    <title>dotvvm-no-tree_logo</title>
    <path transform="translate(498.48 -337.48)" d="M-288.56,511a117.5,117.5,0,0,0-5.33-36.36,81.3,81.3,0,0,0-15.27-28.12,68.68,68.68,0,0,0-24.49-18.18,78.18,78.18,0,0,0-32.48-6.55h-37.81V601.21h37.81q18.42,0,33-6.78a68.83,68.83,0,0,0,24.48-18.91,83.26,83.26,0,0,0,15-28.6A121.21,121.21,0,0,0-288.56,511Zm-209.92,172.6V339.42h132.35q42.66,0,75.15,13.57t54.3,36.85a154.84,154.84,0,0,1,33,54.54A197.35,197.35,0,0,1-192.56,511q0,39.29-12.36,71a154,154,0,0,1-35.16,54.3q-22.77,22.54-54.78,34.91t-71.27,12.36H-498.48" fill="#3d3c3e" />
    <path transform="translate(498.48 -337.48)" d="M-74.26,512a117.31,117.31,0,0,0,4.84,33.7,88,88,0,0,0,14.54,28.84,73.4,73.4,0,0,0,24.5,20.37q14.77,7.74,35.14,7.76t35.39-8a71.72,71.72,0,0,0,24.48-20.84A90,90,0,0,0,78.7,544.49,124,124,0,0,0,83.29,511a117.14,117.14,0,0,0-4.84-33.69,83.49,83.49,0,0,0-14.78-28.61,74.91,74.91,0,0,0-24.74-19.88q-14.79-7.5-34.66-7.51-20.35,0-35.15,7.75a72.46,72.46,0,0,0-24.48,20.61A87.47,87.47,0,0,0-69.67,478.8,120.79,120.79,0,0,0-74.26,512ZM3.79,686.55q-39.28,0-71.27-15A176.26,176.26,0,0,1-122.26,632a178.55,178.55,0,0,1-35.39-56,173,173,0,0,1-12.61-65,168.75,168.75,0,0,1,13.09-65.45,173.59,173.59,0,0,1,36.6-55.51,178.26,178.26,0,0,1,55.76-38.3q32.24-14.29,70.53-14.3,39.29,0,71.27,15a174.24,174.24,0,0,1,54.78,39.75,178,178,0,0,1,35.16,56.24A175.17,175.17,0,0,1,179.3,513a167.38,167.38,0,0,1-13.1,65.22,176.32,176.32,0,0,1-36.36,55.26A178.73,178.73,0,0,1,74.33,672Q42.08,686.54,3.79,686.55" fill="#3d3c3e" />
    <path transform="translate(498.48 -337.48)" d="M482.3,421.83H383.41V683.64H288.87V421.83H189.48V339.42H482.3v82.41" fill="#3d3c3e" />
    <path transform="translate(498.48 -337.48)" d="M583.15,339.42l67.39,225.43L717,339.42h99.38L689.82,683.64H611.27l-128-344.22h99.88" fill="#3773c2" />
    <path transform="translate(498.48 -337.48)" d="M909,339.42l67.37,225.43,66.45-225.43h99.38L1015.62,683.64H937.07l-128-344.22H909" fill="#3773c2" />
    <path transform="translate(498.48 -337.48)" d="M1428.68,683.64V502.32L1371,629.83h-50.43l-57.68-127.51V683.64h-94.56V339.42h103.28l74.18,161.93,74.67-161.93h102.78V683.64h-94.54" fill="#3773c2" />
</svg>

