
<svg viewBox="0 0 1500.3 1683.4" xmlns="http://www.w3.org/2000/svg">
    <title>dotvvm-tree_logo</title>
    <g transform="translate(0 -4.1797e-6)">
        <path transform="translate(-165.58,-6.56)" d="m809.05 69.79c11.76-23.33 28.23-43.88 45.63-63.23 14.18 35.92 27.17 72.3 42.25 107.86 5.86 15.18 8.65 32.87 1.55 48.15-8.74 20.41-26.34 36-46.78 44.24 7.68-15.88 16.3-32.81 14.51-51-3.05-20.74-12.13-40-21.31-58.62 4.18 20.48 9.61 41 9.31 62-0.62 16.37-6.39 32.18-14.78 46.16-19.71-22.9-37.24-49.27-42.94-79.43-3-19.48 4.11-38.9 12.56-56.16" fill="#3773c2" />
        <path transform="translate(-165.58,-6.56)" d="m996 151.23c54.91-40.88 122.24-60.44 188.45-74.12-16.77 63.69-34.4 127.18-51 190.93-6.43 35.32-18.12 72.67-46.52 96.59-38.67 29-90.26 39.4-137.35 28.7 25.45-13.16 50.8-27.87 70.48-49.07 10.83-11.41 16.8-26.25 22.43-40.66 11.44-30.82 17.83-63.26 22.57-95.74-15.61 39.5-32 79.3-57.16 113.83-20.71 24.22-46.69 44.7-76.61 56.26-6.9-55.43-4.81-113.56 16.2-165.91 8.75-25.08 27.84-44.9 48.51-60.81" fill="#3773c2" />
        <path transform="translate(-165.58,-6.56)" d="m540.25 122.91c79.19 27.17 157.75 61.09 223.47 113.95 36.95 30.68 72.4 69 82 117.6 19.85 74.22 12.66 152.92-4.77 226.85-35.55-18.06-64.12-47.12-88.21-78.37-10.7-13.62-17.72-29.59-24.88-45.2-19.22-43.77-33.1-89.69-44.3-136.09 1.29 49.34 5.33 99 18.06 146.83 5 17.66 10.56 35.72 21.8 50.57 23.92 32.67 56.13 58.18 89.8 80.25a237 237 0 0 1-150.14-36.58c-17.63-11.73-35.13-24.62-47-42.55-25.22-36.81-33.47-82.11-36-125.88-13-90.49-26.61-180.93-39.86-271.38" fill="#3773c2" />
        <path transform="translate(-165.58,-6.56)" d="m312.14 157.13c38.77 13.26 77 29.46 111 52.46 24.39 17.13 48.05 37.87 60.21 65.71 16.53 46.85 12.92 98.15 1.79 145.8-22.63-12.16-41.29-30.89-55.51-52.13-16.83-29.85-26.07-63.19-35.22-96 1.82 34.13 3.91 69.22 16.93 101.2 12.43 24.62 35.49 41.51 57.56 57-38.14 3.71-77.6-9.61-105.31-36-21.36-22.17-26.59-54.17-28.92-83.65-7.19-51.5-15.07-102.93-22.53-154.39" fill="#3773c2" />
        <path transform="translate(-165.58,-6.56)" d="m1280.5 178.14c30.25-4.8 61-0.49 90.83 5.47-20 25.71-40.47 51.09-60.38 76.84-10.9 15.48-23.1 32.08-42 38-24 6.66-49.87-0.93-69.25-15.8 17.92-1.89 37.84-2.82 52.32-15 15.37-13.39 27-30.39 37.94-47.42-14 13.45-28 27.23-44.44 37.84-15 9.54-33 13.19-50.6 13.29 8.92-27.27 22-54 42.85-74.19 11.3-11.4 27.24-16.37 42.68-19.06" fill="#3773c2" />
        <path transform="translate(-165.58,-6.56)" d="m1147 411.45c79-36.44 163.33-59.67 248.36-76.94-31.95 119.46-64.45 238.75-96.17 358.23-11.19 65.55-34.25 134.26-86.68 178.41-72.2 53.55-168.39 73.36-255.91 52.49 48.78-23.33 95.9-52.36 133-92.15 16.5-17.1 26.18-39.2 35.36-60.78 25-62.49 38.57-128.93 47.85-195.4-22.7 62-49.41 122.74-83.44 179.4-10.87 17.36-21.44 35.26-36.08 49.8-37.29 38.11-80.38 72.49-131.18 90.49-11.7-102.39-9.18-209.75 30-306.44 9.81-32.08 30.48-59.48 53.78-83.07 40.26-40.33 89.86-69.92 141.09-94.08" fill="#3773c2" />
        <path transform="translate(-165.58,-6.56)" d="m363 540.38c72.08 14.55 143.42 33.6 211.71 61 57 23.27 112.37 52.32 159.22 92.65 31.21 27.44 60 60.37 72.5 100.8 39 96.59 41.59 203.82 29.79 306.08-55.53-20.11-102.49-58.72-141.59-102.16-47.52-65.21-79.69-140.1-108.42-215.09 4 34.7 10.9 69 18.89 103 10.4 41.82 23 83.54 43.17 121.78 11.5 22.63 30.55 40.06 49.51 56.39 31.54 26.21 67.07 47.22 104.11 64.65-66.5 15.84-137.88 8.32-200.14-19.65-12.46-5.4-24.16-12.36-36-18.92-18.36-10.6-33.34-25.71-47.59-41.19-33.73-45.26-51.09-100.23-60-155.37-31.38-118.07-63.42-236-95.07-354" fill="#3773c2" />
        <path transform="translate(-165.58,-6.56)" d="m165.58 662.53c39.76-7.72 84-14.32 121.64 4.6 28.63 18.79 43.71 51.79 54.84 83-18.69 0.07-37.84-4.17-53.41-14.88-15.21-10.64-28.66-23.52-41.95-36.38 11.43 17.56 23.29 35.39 39.63 48.84 14.48 11 33.43 12.1 50.86 13.72-16.67 12.86-37.71 20.21-58.85 17.83-17.06-1-31.28-12.43-41.49-25.32-23-31.12-47.58-60.94-71.27-91.45" fill="#3773c2" />
        <path transform="translate(-165.58,-6.56)" d="m1396.4 720.35c11.76-12.06 28.53-17.5 44.76-20.08 30-4.18 60.38-0.6 89.74 5.8-20.31 25.94-41 51.62-61.07 77.7-10.47 14.85-22.27 30.59-40.13 36.85-24.35 7.06-51-0.2-70.62-15.57 17.51-1.9 36.82-2.72 51.23-14.19 15.55-13 27.28-29.79 38.08-46.79-14.15 13.19-28 26.94-44.47 37.25-14.88 9-32.5 12.42-49.74 12.46 9.14-26.81 21.77-53.32 42.22-73.43" fill="#3773c2" />
        <path transform="translate(-165.58,-6.56)" d="m242.65 927.45c68.86-23.59 142.19-42.51 215.42-33.07 8.95 55.14 26.31 110.11 60 155.37-34.89-17.86-66.2-41.71-97-65.77 26.51 32.87 54.88 65.11 90 89.1 16 11.4 35.75 14.52 54.61 17.86 11.89 6.56 23.59 13.52 36 18.92-34.69 22-77 32.71-118 27.44-38.41-6.83-68.76-34.46-93.28-63.16-49.08-49.1-98.71-97.62-147.86-146.69" fill="#3773c2" />
        <path transform="translate(-165.58,-6.56)" d="m1257.8 953.23c14.65-9.68 30-19.78 47.68-22.24 26.61-4.3 53.68 0.5 79.23 8.09 31.68 9.61 61.66 24 90.4 40.33-39.36 27.56-79.1 54.6-118.43 82.27-21.21 17-45.83 33.77-74.19 33.34-35.82-2.32-69.32-22.4-89.87-51.6 24 5.84 49.54 11.2 73.86 4.41 30.22-11.43 55.67-32.27 80-53.08-27.7 14.55-55.94 29.19-86.55 36.48-23.3 3.84-47.68 2.25-70-5.6 18.72-27.4 40.92-52.92 67.93-72.4" fill="#3773c2" />
        <path transform="translate(-165.58,-6.56)" d="m910.74 1232.5q59.94-120.15 119.79-240.27a3014.6 3014.6 0 0 0 12 303.52c7.89 82.48 19 165 40.36 245.11 14.58 52.25 32.5 105.24 66.3 148.52q-227.44 0.09-454.92 0.62c47.75-49.7 81.38-111.8 102.59-177 29.26-90.2 31.88-187.58 14.91-280.46q49.46-0.06 98.94 0" fill="#3d3c3e" />
    </g>
</svg>

